<svg xmlns="http://www.w3.org/2000/svg" version="1.1" xmlns:xlink="http://www.w3.org/1999/xlink" width="142" height="133"><svg width="142" height="133" viewBox="0 0 142 133" fill="none" xmlns="http://www.w3.org/2000/svg">
<g filter="url(#filter0_d_119_91)">
<path d="M121.89 132.633C129.226 132.61 135.155 126.645 135.132 119.309L134.813 15.4971C134.787 6.93829 127.827 0.0213542 119.268 0.0476786L15.4563 0.366974C8.12021 0.389538 2.19141 6.35493 2.21397 13.691L2.54008 119.717C2.56264 127.053 8.52803 132.982 15.8641 132.959L121.89 132.633Z" fill="#366633"></path>
</g>
<path d="M89.4413 79.0349C89.6936 79.035 89.9878 79.0778 90.3241 79.1619C90.6606 79.246 90.9834 79.26 91.2919 79.2039C90.9273 79.5965 90.4221 80.2831 89.7772 81.2644C89.1603 82.2459 88.4599 83.4245 87.6747 84.7986C86.9176 86.1726 86.1035 87.6583 85.2343 89.2566C84.393 90.827 83.5521 92.426 82.7108 94.0525C81.8977 95.6507 81.1403 97.1506 80.4393 98.5525C81.0001 97.8235 81.5751 97.1368 82.1639 96.492C82.7528 95.847 83.3277 95.2861 83.8885 94.8093C84.5055 94.2485 85.2767 93.6596 86.202 93.0427C87.1555 92.4258 88.095 91.8928 89.0204 91.4441C89.9738 90.9954 90.731 90.7713 91.2919 90.7713C91.4882 90.7713 91.6286 90.7852 91.7128 90.8133C91.7128 90.8133 91.5582 91.0935 91.2499 91.6541C90.9414 92.2149 90.5488 92.9304 90.0721 93.7996C89.6235 94.6689 89.1462 95.6084 88.6415 96.6179C88.1648 97.6274 87.7443 98.5949 87.3798 99.5203C87.0152 100.418 86.7771 101.161 86.6649 101.75C86.5808 102.198 86.5389 102.577 86.5389 102.886C86.5389 103.334 86.6226 103.643 86.7909 103.811C86.9591 103.951 87.1415 104.021 87.3378 104.021C87.8145 104.021 88.3196 103.783 88.8524 103.306C89.4133 102.802 89.9602 102.17 90.493 101.413C91.0257 100.656 91.5161 99.8565 91.9647 99.0154C92.4414 98.1461 92.8201 97.3331 93.1005 96.576C93.437 96.576 93.6053 96.7025 93.6053 96.9549C93.2969 97.7119 92.9043 98.553 92.4276 99.4783C91.9789 100.376 91.4599 101.231 90.871 102.045C90.2822 102.858 89.6373 103.531 88.9364 104.063C88.2353 104.596 87.4921 104.862 86.7069 104.862C86.1461 104.862 85.5712 104.666 84.9823 104.273C84.3936 103.881 84.0986 103.166 84.0985 102.129C84.0985 101.82 84.1274 101.497 84.1835 101.161C84.2396 100.796 84.3372 100.39 84.4774 99.9412C84.6457 99.3804 84.9266 98.7636 85.3192 98.0906C85.7118 97.3895 86.216 96.5198 86.8329 95.4822C87.1133 95.0055 87.2538 94.6269 87.2538 94.3465C87.2537 94.01 87.0854 93.8416 86.7489 93.8416C86.4685 93.8416 86.0898 93.9821 85.6132 94.2625C85.1364 94.5429 84.5336 95.0341 83.8046 95.7351C83.1035 96.4081 82.2336 97.3896 81.1962 98.6795C80.1587 99.9693 79.0515 101.778 77.8739 104.105C77.6776 104.47 77.4525 104.666 77.2001 104.694C76.9758 104.694 76.6675 104.708 76.2753 104.736C76.023 104.764 75.7707 104.778 75.5184 104.778C75.2661 104.806 75.0549 104.891 74.8866 105.031C76.0643 102.619 77.2849 100.096 78.5468 97.4597C79.8367 94.7958 81.1548 92.1176 82.5009 89.4256C83.8469 86.7335 85.179 84.167 86.4969 81.7273C86.9736 80.8862 87.4081 80.2274 87.8007 79.7508C88.2213 79.274 88.7683 79.0349 89.4413 79.0349ZM98.6503 90.4763C98.8745 90.4763 99.1128 90.5192 99.3651 90.6033C99.6175 90.6594 99.8705 90.6873 100.123 90.6873C100.291 90.6873 100.417 90.6732 100.501 90.6453C100.108 90.8698 99.59 91.4308 98.9452 92.3279C98.3283 93.1972 97.6966 94.2065 97.0516 95.3562C96.4067 96.5059 95.8318 97.586 95.327 98.5955C95.8598 97.9505 96.4208 97.3049 97.0096 96.6599C97.5985 96.015 98.2441 95.3982 98.9452 94.8093C99.6182 94.2205 100.417 93.6176 101.343 93.0008C102.296 92.3558 103.222 91.8228 104.119 91.4021C105.016 90.9817 105.731 90.7714 106.264 90.7713C106.46 90.7713 106.6 90.7852 106.684 90.8133C106.682 90.8172 106.528 91.0973 106.222 91.6541C105.913 92.1869 105.521 92.9022 105.044 93.7996C104.595 94.6689 104.133 95.6085 103.656 96.6179C103.179 97.5993 102.745 98.553 102.352 99.4783C101.988 100.376 101.749 101.133 101.637 101.75C101.552 102.114 101.511 102.451 101.511 102.76C101.511 103.208 101.595 103.502 101.764 103.642C101.932 103.782 102.113 103.853 102.309 103.853C102.842 103.853 103.389 103.614 103.95 103.137C104.511 102.661 105.044 102.058 105.549 101.329C106.081 100.572 106.573 99.7726 107.021 98.9314C107.47 98.0902 107.849 97.305 108.157 96.576C108.493 96.576 108.662 96.7026 108.662 96.9549C108.354 97.712 107.96 98.5529 107.483 99.4783C107.035 100.376 106.516 101.232 105.928 102.045C105.367 102.858 104.735 103.53 104.034 104.063C103.333 104.596 102.577 104.862 101.764 104.862C101.203 104.862 100.613 104.666 99.996 104.273C99.4075 103.881 99.1132 103.152 99.1132 102.087C99.1132 101.778 99.1411 101.455 99.1971 101.119C99.2532 100.754 99.3519 100.362 99.4921 99.9412C99.7164 99.3804 99.9825 98.7775 100.291 98.1326C100.599 97.4876 101.104 96.6039 101.806 95.4822C102.002 95.1739 102.113 94.9356 102.141 94.7674C102.198 94.5991 102.225 94.4586 102.225 94.3465C102.225 94.0102 102.072 93.8417 101.764 93.8416C101.511 93.8416 101.132 93.9822 100.628 94.2625C100.151 94.5429 99.5473 95.0341 98.8182 95.7351C98.1173 96.4081 97.2761 97.3619 96.2948 98.5955C95.3414 99.8293 94.2334 101.652 92.9716 104.063C92.7753 104.428 92.5511 104.624 92.2987 104.652C92.0744 104.68 91.7515 104.708 91.3309 104.736C91.0506 104.764 90.7844 104.778 90.5321 104.778C90.2797 104.806 90.0695 104.891 89.9012 105.031C90.9108 102.984 91.8782 100.964 92.8036 98.9734C93.729 96.9544 94.6825 95.0334 95.6639 93.2107C96.2245 92.2016 96.7011 91.5008 97.0936 91.1082C97.4862 90.6876 98.0053 90.4764 98.6503 90.4763ZM63.3378 89.6355C63.8706 89.6355 64.3896 89.7899 64.8944 90.0984C65.3992 90.4069 65.6512 90.9399 65.6512 91.697C65.6511 92.398 65.3851 93.1694 64.8524 94.0105C64.3196 94.8517 63.5623 95.637 62.5809 96.366C62.1603 96.6744 61.6272 96.9684 60.9823 97.2488C60.3374 97.5292 59.6926 97.7674 59.0477 97.9636C58.4028 98.1319 57.8697 98.2166 57.4491 98.2166C57.3089 98.553 57.1684 99.0016 57.0282 99.5623C56.916 100.123 56.8602 100.698 56.8602 101.287C56.8602 101.988 57.0007 102.62 57.2811 103.18C57.5616 103.741 58.0808 104.021 58.8378 104.021C59.7629 104.021 60.6182 103.755 61.4032 103.222C62.2164 102.69 62.9318 102.016 63.5487 101.203C64.1936 100.39 64.7407 99.5627 65.1893 98.7215C65.638 97.8802 65.9887 97.1648 66.2411 96.576C66.5773 96.5761 66.745 96.7026 66.745 96.9549C66.3805 97.7399 65.9599 98.5951 65.4833 99.5203C65.0346 100.446 64.4876 101.315 63.8427 102.129C63.2258 102.914 62.4684 103.573 61.5712 104.105C60.7019 104.61 59.6785 104.862 58.5009 104.862C57.4633 104.862 56.5237 104.526 55.6825 103.853C54.8693 103.18 54.4628 102.156 54.4628 100.782C54.4628 99.6324 54.7149 98.4126 55.2196 97.1228C55.7524 95.8329 56.4399 94.6273 57.2811 93.5056C58.1504 92.3559 59.1039 91.4303 60.1415 90.7293C61.2069 90.0003 62.2723 89.6356 63.3378 89.6355ZM74.6053 89.8035C75.6708 89.8035 76.4281 90.0418 76.8768 90.5183C77.3535 90.9669 77.5916 91.5001 77.5917 92.117C77.5917 92.7059 77.4512 93.2389 77.1708 93.7156C76.8904 94.1642 76.5684 94.529 76.204 94.8093C75.8675 95.0898 75.5726 95.2302 75.3202 95.2302C75.096 95.2302 74.8995 95.1455 74.7313 94.9773C74.9557 94.6969 75.1938 94.3601 75.4462 93.9676C75.6984 93.5752 75.8809 93.1971 75.993 92.8328C76.1052 92.4964 76.162 92.1595 76.162 91.823C76.162 91.0939 75.8252 90.7293 75.1522 90.7293C74.339 90.7293 73.54 91.066 72.7548 91.739C71.9977 92.412 71.2962 93.2809 70.6512 94.3465C70.0343 95.384 69.5302 96.492 69.1376 97.6697C68.773 98.8194 68.5907 99.8855 68.5907 100.867C68.5908 101.764 68.7731 102.507 69.1376 103.095C69.5302 103.684 70.1608 103.979 71.0302 103.979C72.1798 103.979 73.1892 103.615 74.0585 102.886C74.9278 102.128 75.6989 101.189 76.3719 100.067C77.045 98.9174 77.6338 97.7537 78.1385 96.576C78.2507 96.576 78.3633 96.6039 78.4755 96.6599C78.5875 96.688 78.6434 96.7867 78.6434 96.9549C78.0826 98.3569 77.424 99.6612 76.6669 100.867C75.9097 102.073 75.0399 103.04 74.0585 103.769C73.1051 104.498 71.9831 104.862 70.6932 104.862C69.151 104.862 68.0011 104.456 67.244 103.642C66.5151 102.829 66.1503 101.736 66.1503 100.362C66.1503 99.7172 66.2768 98.9738 66.5292 98.1326C66.7816 97.2913 67.1183 96.4355 67.5389 95.5662C67.9595 94.697 68.4219 93.9256 68.9266 93.2527C69.7398 92.1591 70.6376 91.3181 71.619 90.7293C72.6005 90.1124 73.5958 89.8035 74.6053 89.8035ZM116.859 89.6355C117.392 89.6355 117.911 89.7899 118.416 90.0984C118.921 90.4069 119.173 90.94 119.173 91.697C119.173 92.398 118.907 93.1694 118.374 94.0105C117.841 94.8517 117.084 95.6369 116.102 96.366C115.682 96.6744 115.149 96.9684 114.504 97.2488C113.859 97.5292 113.214 97.7674 112.569 97.9636C111.924 98.1319 111.391 98.2166 110.971 98.2166C110.83 98.553 110.69 99.0015 110.55 99.5623C110.438 100.123 110.382 100.698 110.382 101.287C110.382 101.988 110.522 102.62 110.803 103.18C111.083 103.741 111.602 104.021 112.358 104.021C113.284 104.021 114.139 103.755 114.925 103.222C115.738 102.69 116.452 102.016 117.069 101.203C117.714 100.39 118.261 99.5626 118.71 98.7215C119.159 97.8802 119.509 97.1648 119.762 96.576C120.098 96.576 120.266 96.7025 120.266 96.9549C119.902 97.7399 119.481 98.5951 119.005 99.5203C118.556 100.446 118.009 101.315 117.364 102.129C116.747 102.914 115.99 103.572 115.093 104.105C114.223 104.61 113.2 104.862 112.022 104.862C110.985 104.862 110.045 104.526 109.204 103.853C108.391 103.18 107.984 102.156 107.984 100.782C107.984 99.6324 108.236 98.4126 108.741 97.1228C109.274 95.8329 109.961 94.6273 110.803 93.5056C111.672 92.3559 112.625 91.4303 113.663 90.7293C114.728 90.0003 115.794 89.6355 116.859 89.6355ZM47.868 85.6814C48.2324 85.6816 48.5685 85.864 48.8768 86.2283C49.1853 86.5648 49.3397 87.056 49.3397 87.701C49.3396 88.4859 49.1015 89.1588 48.6249 89.7195C48.1762 90.2804 47.6153 90.8134 46.9423 91.3181C47.2227 91.3462 47.5176 91.3741 47.826 91.4021H48.8348C50.1528 91.4021 51.457 91.3184 52.7469 91.1502C52.8029 91.3181 52.8309 91.444 52.8309 91.5281C52.8309 91.8927 52.7193 92.3559 52.495 92.9168C52.2988 93.4774 52.0884 93.9819 51.8641 94.4304C51.752 94.6828 51.5268 95.1461 51.1903 95.8191C50.8539 96.464 50.4891 97.2075 50.0966 98.0486C49.7041 98.8617 49.3681 99.675 49.0878 100.488C48.8355 101.273 48.7089 101.946 48.7089 102.507C48.7089 103.236 48.9898 103.6 49.5507 103.6C50.0834 103.6 50.8261 102.983 51.7792 101.75C52.7326 100.488 53.6861 98.7632 54.6395 96.576C54.976 96.576 55.1444 96.7025 55.1444 96.9549C54.836 97.7119 54.4433 98.5391 53.9667 99.4363C53.5181 100.333 53.0137 101.189 52.453 102.002C51.8922 102.787 51.2884 103.446 50.6434 103.979C49.9986 104.484 49.3258 104.736 48.6249 104.736C48.0921 104.736 47.5591 104.526 47.0262 104.105C46.4935 103.657 46.2274 102.941 46.2274 101.96C46.2275 101.091 46.3958 100.249 46.7323 99.4363C47.0688 98.5951 47.4474 97.8099 47.868 97.0808C48.2886 96.3518 48.6673 95.7071 49.0038 95.1463C49.3403 94.5854 49.5077 94.1361 49.5077 93.7996C49.5076 93.295 49.1857 92.9301 48.5409 92.7058C47.9241 92.4815 47.1107 92.356 46.1014 92.3279C45.5967 93.6178 45.2181 94.5713 44.9657 95.1883C44.7133 95.8051 44.4742 96.3941 44.2499 96.9549C43.8015 96.9548 43.647 96.7862 43.787 96.45C44.0113 95.9733 44.3062 95.216 44.6708 94.1785C45.0353 93.1129 45.414 91.9351 45.8065 90.6453C46.1991 89.3553 46.494 88.1349 46.6903 86.9851C46.7744 86.5369 46.9281 86.2146 47.1522 86.0183C47.3766 85.794 47.6157 85.6814 47.868 85.6814ZM124.72 85.6814C125.084 85.6815 125.421 85.8638 125.729 86.2283C126.038 86.5648 126.191 87.0561 126.191 87.701C126.191 88.486 125.953 89.1588 125.476 89.7195C125.028 90.2804 124.467 90.8134 123.794 91.3181C124.074 91.3462 124.369 91.3741 124.678 91.4021H125.686C127.004 91.4021 128.309 91.3184 129.599 91.1502C129.654 91.3181 129.682 91.444 129.682 91.5281C129.682 91.8927 129.571 92.3559 129.347 92.9168C129.15 93.4774 128.94 93.9819 128.716 94.4304C128.604 94.6828 128.379 95.1461 128.043 95.8191C127.706 96.4641 127.342 97.2073 126.949 98.0486C126.557 98.8618 126.22 99.6749 125.939 100.488C125.687 101.273 125.56 101.946 125.56 102.507C125.56 103.236 125.841 103.6 126.402 103.6C126.935 103.6 127.678 102.983 128.632 101.75C129.585 100.488 130.539 98.7631 131.492 96.576C131.828 96.5761 131.996 96.7026 131.996 96.9549C131.688 97.7119 131.295 98.5391 130.818 99.4363C130.37 100.333 129.865 101.189 129.305 102.002C128.744 102.787 128.141 103.446 127.496 103.979C126.851 104.484 126.178 104.736 125.476 104.736C124.944 104.736 124.411 104.526 123.878 104.105C123.345 103.657 123.079 102.941 123.079 101.96C123.079 101.091 123.247 100.249 123.584 99.4363C123.92 98.5951 124.299 97.8099 124.72 97.0808C125.14 96.3518 125.519 95.7071 125.855 95.1463C126.192 94.5854 126.36 94.1361 126.36 93.7996C126.36 93.2949 126.037 92.9301 125.392 92.7058C124.776 92.4815 123.962 92.356 122.953 92.3279C122.448 93.6178 122.07 94.5714 121.817 95.1883C121.565 95.8051 121.326 96.3941 121.101 96.9549C120.653 96.9547 120.499 96.7864 120.64 96.45C120.864 95.9733 121.158 95.216 121.522 94.1785C121.887 93.113 122.266 91.9351 122.658 90.6453C123.051 89.3553 123.346 88.1349 123.542 86.9851C123.626 86.5366 123.78 86.2146 124.005 86.0183C124.229 85.794 124.467 85.6814 124.72 85.6814ZM63.8427 90.6033C63.5062 90.6034 63.0437 90.8276 62.455 91.2761C61.8661 91.7248 61.1368 92.482 60.2675 93.5476C59.7347 94.2206 59.2295 94.95 58.7528 95.7351C58.2762 96.5201 57.9403 97.0953 57.744 97.4597C58.1366 97.4597 58.7955 97.3192 59.7206 97.0388C60.646 96.7304 61.4878 96.2532 62.245 95.6082C62.9738 94.9634 63.5341 94.2625 63.9266 93.5056C64.3192 92.7204 64.5165 92.0609 64.5165 91.5281C64.5164 90.9113 64.2913 90.6033 63.8427 90.6033ZM117.364 90.6033C117.028 90.6033 116.565 90.8276 115.976 91.2761C115.388 91.7248 114.658 92.482 113.789 93.5476C113.256 94.2206 112.751 94.95 112.274 95.7351C111.798 96.5201 111.461 97.0952 111.265 97.4597C111.657 97.4597 112.317 97.3193 113.242 97.0388C114.167 96.7304 115.008 96.2531 115.766 95.6082C116.494 94.9633 117.056 94.2627 117.448 93.5056C117.841 92.7204 118.037 92.0609 118.037 91.5281C118.037 90.9113 117.813 90.6033 117.364 90.6033ZM45.7089 28.4724C46.9427 28.4724 47.8962 28.8232 48.5692 29.5242C49.2703 30.2252 49.621 31.1927 49.621 32.4265C49.621 33.6323 49.341 34.9645 48.7802 36.4226C48.2193 37.8528 47.4332 39.2825 46.4237 40.7127C45.4142 42.1428 44.2226 43.4749 42.8485 44.7088C41.4744 45.9426 39.974 46.9668 38.3475 47.7801C36.7212 48.5932 35.0103 49.0974 33.2157 49.2937C32.7951 50.191 32.2629 51.3271 31.618 52.701C30.9731 54.047 30.2019 55.4358 29.3046 56.866C31.7441 57.4268 34.0438 58.1841 36.203 59.1375C38.3901 60.0909 40.3113 61.17 41.9657 62.3758C43.6482 63.6096 44.9664 64.9138 45.9198 66.2879C46.8731 67.6898 47.3494 69.078 47.3495 70.4519C47.3495 71.6858 47.0406 72.7239 46.4237 73.5652C45.8069 74.4061 45.1062 74.8269 44.3212 74.8269C44.041 74.8269 43.8585 74.7709 43.7743 74.659C43.6902 74.5748 43.6483 74.4762 43.6483 74.364C44.153 74.2798 44.6434 73.9011 45.12 73.2283C45.5967 72.5833 45.8348 71.8261 45.8348 70.9568C45.8348 69.5828 45.3865 68.2506 44.4891 66.9607C43.5918 65.6989 42.3302 64.535 40.704 63.4695C39.0776 62.4039 37.1705 61.4923 34.9833 60.7351C32.824 59.9499 30.4538 59.3751 27.8739 59.0105C26.9205 60.3565 25.8414 61.591 24.6356 62.7127C23.4579 63.8624 22.1397 64.774 20.6815 65.447C19.2515 66.148 17.6949 66.4978 16.0126 66.4978C14.2459 66.4978 12.8989 66.0913 11.9735 65.2781C11.0484 64.4649 10.5858 63.5252 10.5858 62.4597C10.5859 61.4784 10.9785 60.4968 11.7635 59.5154C12.5767 58.506 13.7965 57.6789 15.4227 57.034C17.0771 56.361 19.1667 56.0242 21.6903 56.0242C23.6252 56.0242 25.5889 56.1926 27.58 56.5291C28.2809 55.2954 28.9117 54.0616 29.4725 52.8279C30.0333 51.5941 30.5246 50.4303 30.9452 49.3367C28.169 49.2245 25.9811 48.8031 24.3827 48.074C22.7844 47.3169 21.6485 46.3773 20.9755 45.2556C20.3026 44.1341 19.9657 42.9841 19.9657 41.8064C19.9658 40.3203 20.4151 38.9182 21.3124 37.6004C22.2097 36.2544 23.4293 35.1604 24.9716 34.3191C26.5138 33.4779 28.2386 33.0574 30.1454 33.0574C30.3697 33.0574 30.5102 33.1421 30.5663 33.3103C30.6222 33.4782 30.6502 33.6182 30.6503 33.7302C29.5847 33.7302 28.5474 33.9694 27.538 34.4461C26.5565 34.9228 25.6728 35.5674 24.8876 36.3806C24.1024 37.1658 23.4717 38.0495 22.995 39.031C22.5464 40.0124 22.3221 41.0219 22.3221 42.0593C22.3222 43.0688 22.5882 44.0642 23.121 45.0457C23.6538 45.9991 24.5654 46.7982 25.8553 47.4431C27.1453 48.088 28.9538 48.4388 31.2811 48.4949C31.5335 47.85 31.7437 47.2611 31.912 46.7283C32.1083 46.1674 32.2767 45.6902 32.4169 45.2976C33.0899 43.2787 33.8053 41.2739 34.5624 39.283C35.3475 37.2922 36.2304 35.4835 37.2118 33.8572C38.2213 32.2307 39.4139 30.9266 40.788 29.9451C42.162 28.9637 43.8021 28.4725 45.7089 28.4724ZM21.6903 58.5906C19.3912 58.5906 17.4987 58.8288 16.0126 59.3054C14.5264 59.7541 13.4184 60.329 12.6893 61.0301C11.9884 61.7029 11.6377 62.3757 11.6376 63.0486C11.6376 63.7497 12.0162 64.3534 12.7733 64.8582C13.5304 65.3908 14.6106 65.657 16.0126 65.657C18.0875 65.6569 19.9659 64.9834 21.6483 63.6375C23.3308 62.3195 24.8313 60.7074 26.1493 58.8006C24.6631 58.6604 23.1765 58.5906 21.6903 58.5906ZM69.5087 36.0857C69.761 36.0857 70.0559 36.1285 70.3925 36.2127C70.7289 36.2967 71.0518 36.3107 71.3602 36.2547C70.9957 36.6472 70.4905 37.3339 69.8456 38.3152C69.2287 39.2966 68.5272 40.4744 67.7421 41.8484C66.9849 43.2224 66.1719 44.709 65.3026 46.3074C64.4613 47.8778 63.6204 49.4768 62.7792 51.1033C61.9661 52.7015 61.2087 54.2014 60.5077 55.6033C61.0684 54.8744 61.6435 54.1876 62.2323 53.5427C62.8212 52.8978 63.3961 52.3368 63.9569 51.8601C64.5738 51.2993 65.3451 50.7104 66.2704 50.0935C67.2238 49.4766 68.1634 48.9435 69.0887 48.4949C70.042 48.0463 70.7995 47.822 71.3602 47.822C71.5561 47.8221 71.6961 47.8361 71.7802 47.864C71.7762 47.8713 71.6216 48.1515 71.3173 48.7049C71.0088 49.2657 70.6162 49.981 70.1395 50.8504C69.6909 51.7196 69.2146 52.6592 68.7098 53.6687C68.2331 54.6782 67.8127 55.6457 67.4481 56.5711C67.0836 57.4684 66.8445 58.2117 66.7323 58.8006C66.6482 59.2492 66.6063 59.6279 66.6063 59.9363C66.6063 60.385 66.691 60.6938 66.8593 60.8621C67.0274 61.0021 67.21 61.072 67.4061 61.072C67.8827 61.0719 68.3872 60.8336 68.9198 60.3572C69.4806 59.8524 70.0276 59.2208 70.5604 58.4636C71.0932 57.7066 71.5844 56.9074 72.0331 56.0662C72.5097 55.197 72.8884 54.3838 73.1688 53.6267C73.5051 53.6268 73.6737 53.7533 73.6737 54.0056C73.3652 54.7627 72.9717 55.6037 72.495 56.5291C72.0464 57.4262 71.5281 58.2814 70.9393 59.0945C70.3504 59.9077 69.7048 60.5812 69.0038 61.114C68.3029 61.6466 67.5602 61.9128 66.7753 61.9129C66.2145 61.9129 65.6395 61.7165 65.0507 61.324C64.4618 60.9314 64.1669 60.2169 64.1669 59.1795C64.1669 58.871 64.1948 58.5482 64.2509 58.2117C64.3069 57.8472 64.4056 57.4406 64.5458 56.992C64.714 56.4312 64.9941 55.8143 65.3866 55.1414C65.7792 54.4403 66.2843 53.5706 66.9012 52.533C67.1816 52.0563 67.3212 51.6776 67.3212 51.3972C67.3211 51.0609 67.1535 50.8925 66.8173 50.8924C66.5369 50.8924 66.1581 51.0329 65.6815 51.3133C65.2048 51.5937 64.6011 52.0848 63.8719 52.7859C63.171 53.4589 62.3019 54.4406 61.2645 55.7302C60.227 57.0202 59.119 58.8286 57.9413 61.156C57.745 61.5206 57.5208 61.7168 57.2684 61.7449C57.0441 61.7449 56.7352 61.7588 56.3427 61.7869C56.0904 61.8149 55.8381 61.8289 55.5858 61.8289C55.3334 61.8569 55.1232 61.9416 54.955 62.0818C56.1327 59.6703 57.3523 57.1463 58.6141 54.5105C59.904 51.8466 61.2223 49.1683 62.5682 46.4763C63.9143 43.7843 65.2463 41.2178 66.5643 38.7781C67.0409 37.9371 67.4755 37.2782 67.868 36.8015C68.2886 36.3249 68.8358 36.0858 69.5087 36.0857ZM78.7186 47.5271C78.9429 47.5272 79.1812 47.57 79.4335 47.6541C79.6857 47.7101 79.9381 47.738 80.1903 47.7381C80.3586 47.7381 80.4851 47.7241 80.5692 47.6961C80.1766 47.9204 79.6575 48.4814 79.0126 49.3787C78.3957 50.2479 77.7649 51.2574 77.12 52.407C76.4751 53.5566 75.9001 54.6359 75.3954 55.6453C75.9281 55.0004 76.4892 54.3556 77.078 53.7107C77.6668 53.0658 78.3116 52.4489 79.0126 51.8601C79.6855 51.2713 80.4848 50.6684 81.41 50.0515C82.3634 49.4066 83.2891 48.8735 84.1864 48.4529C85.0838 48.0323 85.7991 47.822 86.3319 47.822C86.5282 47.822 86.6687 47.836 86.7528 47.864C86.7528 47.864 86.5982 48.1443 86.2899 48.7049C85.9815 49.2376 85.5889 49.9531 85.1122 50.8504C84.6635 51.7197 84.2002 52.6592 83.7235 53.6687C83.2468 54.6502 82.8124 55.6037 82.4198 56.5291C82.0553 57.4264 81.8171 58.1836 81.705 58.8006C81.6208 59.1651 81.579 59.5019 81.579 59.8103C81.579 60.2587 81.6628 60.5529 81.8309 60.6931C81.9992 60.8333 82.1815 60.9041 82.3778 60.9041C82.9106 60.9041 83.4576 60.665 84.0184 60.1883C84.5792 59.7116 85.1124 59.1086 85.6171 58.3797C86.1498 57.6226 86.6401 56.8233 87.0887 55.9822C87.5374 55.141 87.916 54.3558 88.2245 53.6267C88.561 53.6267 88.7294 53.7533 88.7294 54.0056C88.4209 54.7627 88.0283 55.6038 87.5516 56.5291C87.103 57.4264 86.5838 58.2813 85.995 59.0945C85.4341 59.9077 84.8035 60.5812 84.1024 61.114C83.4014 61.6468 82.6442 61.9129 81.8309 61.9129C81.2701 61.9129 80.6812 61.7166 80.0643 61.324C79.4756 60.9314 79.1806 60.2028 79.1805 59.1375C79.1805 58.829 79.2094 58.5062 79.2655 58.1697C79.3216 57.8052 79.4193 57.4125 79.5594 56.992C79.7837 56.4312 80.0499 55.8282 80.3583 55.1834C80.6667 54.5384 81.1719 53.6547 81.8729 52.533C82.0692 52.2246 82.1818 51.9864 82.2098 51.8181C82.2659 51.6499 82.2938 51.5094 82.2938 51.3972C82.2938 51.0608 82.1394 50.8924 81.8309 50.8924C81.5786 50.8924 81.1999 51.0329 80.6952 51.3133C80.2185 51.5937 79.6157 52.0849 78.8866 52.7859C78.1857 53.4588 77.3444 54.4118 76.3632 55.6453C75.4097 56.8791 74.3018 58.7024 73.0399 61.114C72.8437 61.4784 72.6193 61.6747 72.3671 61.7029C72.1427 61.7309 71.8199 61.7588 71.3993 61.7869C71.1189 61.8149 70.8519 61.8289 70.5995 61.8289C70.3473 61.857 70.1368 61.9417 69.9686 62.0818C70.9781 60.0347 71.9456 58.0152 72.871 56.0242C73.7964 54.0052 74.7499 52.0842 75.7313 50.2615C76.2922 49.252 76.7694 48.5506 77.162 48.158C77.5546 47.7375 78.0738 47.5271 78.7186 47.5271ZM51.1737 46.9802C52.3232 46.9802 53.1643 47.3731 53.6971 48.158C54.258 48.9432 54.5389 49.9395 54.5389 51.1453C54.5389 51.9864 54.3984 52.8695 54.118 53.7947C53.8376 54.7201 53.459 55.6317 52.9823 56.5291C53.3469 56.8936 53.8659 57.076 54.5389 57.076C55.3239 57.0759 55.9967 56.8236 56.5575 56.3191C57.1183 55.8144 57.6653 54.9166 58.1981 53.6267C58.5346 53.6267 58.703 53.7533 58.703 54.0056C58.1702 55.2954 57.5534 56.2491 56.8524 56.866C56.1794 57.4548 55.3096 57.7349 54.244 57.7068C53.5993 57.7067 53.0669 57.5243 52.6464 57.1599C51.8612 58.4499 50.9216 59.5438 49.828 60.4412C48.7624 61.3105 47.6545 61.7449 46.5048 61.7449C45.355 61.7449 44.4992 61.3384 43.9384 60.5252C43.4057 59.684 43.1396 58.6744 43.1395 57.4968C43.1395 56.4033 43.3498 55.2673 43.7704 54.0896C44.219 52.7998 44.8359 51.6219 45.621 50.5564C46.4342 49.4908 47.3179 48.635 48.2714 47.99C49.2528 47.317 50.2203 46.9803 51.1737 46.9802ZM51.8466 48.3269C51.2577 48.327 50.6409 48.5791 49.996 49.0838C49.351 49.5885 48.7343 50.262 48.1454 51.1033C47.5846 51.9444 47.0933 52.8833 46.6727 53.9207C46.3082 54.79 46.0282 55.6179 45.8319 56.4031C45.6357 57.16 45.537 57.8608 45.537 58.5056C45.537 59.2066 45.6636 59.7676 45.9159 60.1883C46.1683 60.6089 46.5608 60.8201 47.0936 60.8201C47.7385 60.8201 48.3833 60.553 49.0282 60.0203C49.6731 59.4595 50.2621 58.8286 50.7948 58.1277C51.3275 57.4268 51.7062 56.8238 51.9305 56.3191C51.482 55.5062 51.2159 54.9031 51.1317 54.5105C51.0756 54.09 51.0477 53.781 51.0477 53.5847C51.0477 53.0519 51.1882 52.6454 51.4686 52.365C51.749 52.0847 52.0291 51.9441 52.3094 51.9441C52.702 51.9441 53.0388 52.1125 53.3192 52.449C53.3753 52.1405 53.4171 51.8596 53.4452 51.6072C53.4732 51.3269 53.4872 51.0606 53.4872 50.8084C53.4872 50.0793 53.3467 49.4904 53.0663 49.0418C52.8139 48.5651 52.4074 48.3269 51.8466 48.3269ZM102.858 51.6502C102.998 51.6502 103.068 51.706 103.068 51.8181C103.068 52.1265 102.984 52.3927 102.816 52.617C102.648 52.8133 102.325 52.9119 101.849 52.9119H91.9637C91.8235 52.9119 91.7538 52.8551 91.7538 52.7429C91.7539 52.5467 91.8236 52.3223 91.9637 52.0701C92.132 51.7898 92.4409 51.6502 92.8895 51.6502H102.858ZM45.7089 30.6179C44.5031 30.618 43.3672 31.151 42.3016 32.2166C41.2361 33.2541 40.2127 34.6422 39.2313 36.3806C38.2779 38.0912 37.3384 39.9982 36.413 42.1013C35.4876 44.2045 34.562 46.2938 33.6366 48.3689C35.2911 48.1446 36.8334 47.6394 38.2635 46.8543C39.6937 46.0691 40.9979 45.1156 42.1757 43.9939C43.3533 42.8443 44.3628 41.6246 45.204 40.3347C46.0453 39.0448 46.6908 37.7825 47.1395 36.5486C47.5881 35.2868 47.8124 34.1648 47.8124 33.1834C47.8123 32.3984 47.644 31.7814 47.3075 31.3328C46.971 30.8561 46.4379 30.6179 45.7089 30.6179Z" fill="#BCE6B9"></path>
<defs>
<filter id="SvgjsFilter1076" x="4.79221e-05" y="0.0476036" width="141.774" height="141.767" filterUnits="userSpaceOnUse" color-interpolation-filters="sRGB">
<feFlood flood-opacity="0" result="BackgroundImageFix"></feFlood>
<feColorMatrix in="SourceAlpha" type="matrix" values="0 0 0 0 0 0 0 0 0 0 0 0 0 0 0 0 0 0 127 0" result="hardAlpha"></feColorMatrix>
<feMorphology radius="2.21388" operator="dilate" in="SourceAlpha" result="effect1_dropShadow_119_91"></feMorphology>
<feOffset dx="2.21388" dy="4.42776"></feOffset>
<feGaussianBlur stdDeviation="1.10694"></feGaussianBlur>
<feComposite in2="hardAlpha" operator="out"></feComposite>
<feColorMatrix type="matrix" values="0 0 0 0 0 0 0 0 0 0 0 0 0 0 0 0 0 0 0.2 0"></feColorMatrix>
<feBlend mode="normal" in2="BackgroundImageFix" result="effect1_dropShadow_119_91"></feBlend>
<feBlend mode="normal" in="SourceGraphic" in2="effect1_dropShadow_119_91" result="shape"></feBlend>
</filter>
</defs>
</svg><style>@media (prefers-color-scheme: light) { :root { filter: none; } }
@media (prefers-color-scheme: dark) { :root { filter: none; } }
</style></svg>