<svg class="lohnRechnerLogo" width="331" height="334" viewBox="0 0 331 334" fill="none" xmlns="http://www.w3.org/2000/svg">
<g filter="url(#filter0_ddi_4_109)">
<g filter="url(#filter1_d_4_109)">
<path d="M283.286 312.441C299.854 312.39 313.244 298.918 313.193 282.349L312.472 47.8923C312.413 28.5625 296.694 12.9407 277.365 13.0002L42.9077 13.7213C26.3393 13.7723 12.9492 27.245 13.0001 43.8134L13.7366 283.27C13.7876 299.839 27.2603 313.229 43.8288 313.178L283.286 312.441Z" fill="#BCE6B9"/>
</g>
<path d="M210.001 191.087C210.571 191.087 211.236 191.182 211.996 191.372C212.756 191.562 213.484 191.593 214.18 191.467C213.357 192.353 212.217 193.905 210.76 196.122C209.367 198.339 207.784 200.999 206.01 204.102C204.3 207.206 202.464 210.562 200.501 214.172C198.601 217.718 196.7 221.329 194.8 225.002C192.964 228.612 191.254 232 189.671 235.167C190.937 233.52 192.236 231.968 193.566 230.512C194.896 229.055 196.194 227.788 197.461 226.712C198.854 225.445 200.595 224.115 202.685 222.722C204.838 221.328 206.961 220.126 209.05 219.112C211.204 218.099 212.914 217.592 214.18 217.592C214.624 217.592 214.941 217.624 215.131 217.687C215.121 217.705 214.773 218.338 214.086 219.587C213.389 220.853 212.502 222.468 211.425 224.432C210.412 226.395 209.336 228.517 208.196 230.797C207.119 233.077 206.169 235.262 205.345 237.352C204.522 239.379 203.984 241.057 203.731 242.387C203.541 243.4 203.446 244.255 203.446 244.952C203.446 245.965 203.635 246.662 204.015 247.042C204.395 247.359 204.807 247.517 205.251 247.517C206.327 247.517 207.467 246.979 208.671 245.902C209.937 244.762 211.172 243.337 212.376 241.627C213.579 239.917 214.688 238.112 215.701 236.212C216.777 234.249 217.632 232.412 218.265 230.702C219.025 230.702 219.406 230.987 219.406 231.557C218.709 233.266 217.822 235.167 216.746 237.257C215.732 239.283 214.561 241.215 213.231 243.052C211.901 244.888 210.444 246.409 208.861 247.612C207.278 248.816 205.599 249.417 203.826 249.417C202.559 249.417 201.26 248.973 199.93 248.087C198.601 247.2 197.935 245.585 197.935 243.242C197.935 242.545 197.999 241.817 198.126 241.057C198.252 240.233 198.474 239.315 198.791 238.302C199.171 237.035 199.804 235.642 200.691 234.122C201.578 232.539 202.718 230.576 204.111 228.232C204.744 227.156 205.06 226.3 205.06 225.667C205.06 224.907 204.681 224.527 203.921 224.527C203.287 224.527 202.433 224.844 201.356 225.477C200.28 226.111 198.918 227.219 197.271 228.802C195.688 230.322 193.724 232.539 191.381 235.452C189.037 238.365 186.536 242.45 183.876 247.707C183.432 248.53 182.926 248.974 182.356 249.037C181.849 249.037 181.152 249.068 180.265 249.132C179.695 249.195 179.125 249.227 178.555 249.227C177.986 249.291 177.51 249.48 177.131 249.797C179.79 244.35 182.546 238.65 185.396 232.697C188.309 226.681 191.286 220.632 194.326 214.552C197.366 208.472 200.374 202.677 203.35 197.167C204.427 195.267 205.409 193.779 206.296 192.702C207.246 191.625 208.481 191.087 210.001 191.087ZM230.799 216.927C231.306 216.927 231.845 217.022 232.415 217.212C232.985 217.338 233.555 217.402 234.125 217.402C234.505 217.402 234.79 217.37 234.98 217.307C234.093 217.813 232.921 219.081 231.465 221.107C230.071 223.071 228.647 225.351 227.19 227.947C225.733 230.544 224.435 232.982 223.295 235.262C224.498 233.805 225.765 232.349 227.094 230.892C228.424 229.436 229.881 228.042 231.465 226.712C232.984 225.382 234.79 224.02 236.88 222.627C239.033 221.17 241.123 219.967 243.15 219.017C245.177 218.068 246.791 217.592 247.995 217.592C248.438 217.592 248.755 217.624 248.945 217.687C248.938 217.7 248.589 218.333 247.9 219.587C247.203 220.79 246.316 222.405 245.24 224.432C244.227 226.395 243.182 228.517 242.105 230.797C241.028 233.013 240.046 235.167 239.16 237.257C238.337 239.283 237.798 240.993 237.545 242.387C237.355 243.21 237.259 243.97 237.259 244.667C237.259 245.68 237.45 246.345 237.83 246.662C238.21 246.979 238.622 247.137 239.065 247.137C240.268 247.137 241.504 246.599 242.77 245.522C244.037 244.446 245.24 243.084 246.38 241.437C247.583 239.727 248.691 237.922 249.705 236.022C250.718 234.122 251.573 232.349 252.27 230.702C253.03 230.702 253.41 230.987 253.41 231.557C252.713 233.266 251.826 235.167 250.75 237.257C249.736 239.283 248.565 241.215 247.235 243.052C245.968 244.888 244.543 246.409 242.96 247.612C241.376 248.815 239.666 249.417 237.83 249.417C236.563 249.417 235.233 248.973 233.84 248.087C232.51 247.2 231.844 245.554 231.844 243.147C231.844 242.451 231.908 241.722 232.035 240.962C232.161 240.139 232.383 239.252 232.7 238.302C233.206 237.035 233.808 235.673 234.505 234.217C235.201 232.76 236.341 230.765 237.924 228.232C238.368 227.536 238.622 226.997 238.685 226.617C238.812 226.237 238.875 225.92 238.875 225.667C238.875 224.907 238.526 224.527 237.83 224.527C237.26 224.527 236.404 224.844 235.264 225.477C234.188 226.111 232.826 227.219 231.179 228.802C229.596 230.322 227.697 232.475 225.48 235.262C223.327 238.048 220.824 242.166 217.974 247.612C217.531 248.435 217.025 248.879 216.455 248.942C215.948 249.006 215.22 249.068 214.27 249.132C213.637 249.195 213.035 249.227 212.465 249.227C211.895 249.291 211.42 249.48 211.04 249.797C213.32 245.174 215.504 240.614 217.594 236.117C219.684 231.557 221.838 227.219 224.054 223.102C225.321 220.823 226.398 219.239 227.285 218.352C228.171 217.403 229.343 216.927 230.799 216.927ZM151.048 215.027C152.251 215.027 153.423 215.376 154.563 216.072C155.703 216.769 156.273 217.972 156.273 219.682C156.273 221.265 155.672 223.007 154.468 224.907C153.265 226.807 151.554 228.581 149.338 230.227C148.388 230.924 147.184 231.588 145.728 232.222C144.272 232.855 142.815 233.393 141.358 233.837C139.901 234.217 138.698 234.407 137.748 234.407C137.431 235.167 137.114 236.181 136.798 237.447C136.544 238.714 136.418 240.012 136.418 241.342C136.418 242.925 136.734 244.35 137.368 245.617C138.001 246.884 139.173 247.517 140.883 247.517C142.973 247.517 144.905 246.915 146.678 245.712C148.515 244.509 150.13 242.989 151.523 241.152C152.98 239.316 154.215 237.447 155.228 235.547C156.241 233.647 157.033 232.032 157.603 230.702C158.363 230.702 158.743 230.987 158.743 231.557C157.919 233.33 156.97 235.262 155.893 237.352C154.88 239.442 153.645 241.406 152.188 243.242C150.795 245.015 149.085 246.504 147.058 247.707C145.095 248.847 142.783 249.417 140.123 249.417C137.78 249.417 135.658 248.657 133.758 247.137C131.922 245.617 131.003 243.305 131.003 240.202C131.003 237.606 131.573 234.851 132.713 231.937C133.916 229.024 135.468 226.301 137.368 223.767C139.331 221.171 141.484 219.08 143.828 217.497C146.234 215.85 148.641 215.027 151.048 215.027ZM176.495 215.407C178.901 215.407 180.611 215.946 181.625 217.022C182.701 218.036 183.24 219.239 183.24 220.632C183.24 221.962 182.923 223.165 182.29 224.242C181.656 225.255 180.927 226.078 180.104 226.712C179.344 227.345 178.68 227.662 178.11 227.662C177.603 227.662 177.16 227.472 176.78 227.092C177.286 226.459 177.824 225.699 178.394 224.812C178.964 223.926 179.376 223.07 179.63 222.247C179.883 221.487 180.009 220.727 180.009 219.967C180.009 218.32 179.249 217.497 177.729 217.497C175.893 217.497 174.088 218.257 172.315 219.777C170.605 221.297 169.022 223.26 167.565 225.667C166.172 228.01 165.031 230.512 164.144 233.172C163.321 235.768 162.91 238.176 162.91 240.392C162.91 242.419 163.321 244.097 164.144 245.427C165.031 246.757 166.456 247.422 168.42 247.422C171.016 247.422 173.296 246.599 175.259 244.952C177.223 243.242 178.965 241.12 180.485 238.587C182.005 235.99 183.334 233.362 184.474 230.702C184.728 230.702 184.982 230.766 185.235 230.892C185.488 230.956 185.615 231.177 185.615 231.557C184.348 234.723 182.86 237.669 181.15 240.392C179.44 243.116 177.476 245.301 175.259 246.947C173.106 248.594 170.573 249.417 167.66 249.417C164.177 249.417 161.58 248.499 159.87 246.662C158.223 244.825 157.4 242.355 157.4 239.252C157.4 237.795 157.685 236.117 158.255 234.217C158.825 232.317 159.585 230.385 160.535 228.422C161.485 226.459 162.53 224.717 163.67 223.197C165.506 220.727 167.533 218.827 169.75 217.497C171.966 216.104 174.215 215.407 176.495 215.407ZM271.924 215.027C273.128 215.027 274.299 215.376 275.439 216.072C276.579 216.769 277.149 217.972 277.149 219.682C277.149 221.265 276.548 223.007 275.344 224.907C274.141 226.807 272.431 228.581 270.215 230.227C269.265 230.924 268.061 231.588 266.604 232.222C265.147 232.855 263.691 233.393 262.234 233.837C260.778 234.217 259.575 234.407 258.625 234.407C258.308 235.167 257.991 236.181 257.674 237.447C257.421 238.714 257.295 240.012 257.295 241.342C257.295 242.925 257.611 244.35 258.245 245.617C258.878 246.884 260.05 247.517 261.759 247.517C263.849 247.517 265.781 246.915 267.554 245.712C269.391 244.509 271.006 242.989 272.399 241.152C273.856 239.316 275.091 237.447 276.104 235.547C277.117 233.647 277.909 232.032 278.479 230.702C279.239 230.702 279.62 230.987 279.62 231.557C278.796 233.33 277.846 235.262 276.769 237.352C275.756 239.442 274.521 241.406 273.064 243.242C271.671 245.015 269.961 246.504 267.934 247.707C265.971 248.847 263.66 249.417 261 249.417C258.656 249.417 256.534 248.657 254.634 247.137C252.798 245.617 251.88 243.305 251.88 240.202C251.88 237.605 252.45 234.851 253.59 231.937C254.793 229.024 256.345 226.301 258.245 223.767C260.208 221.171 262.361 219.08 264.705 217.497C267.111 215.85 269.518 215.027 271.924 215.027ZM116.108 206.097C116.931 206.097 117.692 206.509 118.388 207.332C119.085 208.092 119.433 209.201 119.433 210.657C119.433 212.43 118.895 213.95 117.818 215.217C116.805 216.483 115.538 217.687 114.018 218.827C114.651 218.89 115.317 218.954 116.013 219.017H118.293C121.269 219.017 124.214 218.827 127.128 218.447C127.254 218.827 127.318 219.112 127.318 219.302C127.318 220.125 127.065 221.171 126.558 222.437C126.115 223.704 125.64 224.844 125.133 225.857C124.88 226.427 124.373 227.472 123.613 228.992C122.853 230.449 122.03 232.127 121.143 234.027C120.257 235.864 119.496 237.7 118.863 239.537C118.293 241.31 118.009 242.83 118.008 244.097C118.008 245.743 118.641 246.567 119.908 246.567C121.111 246.567 122.79 245.173 124.943 242.387C127.096 239.537 129.25 235.642 131.403 230.702C132.163 230.702 132.542 230.987 132.543 231.557C131.846 233.266 130.96 235.135 129.883 237.162C128.87 239.189 127.729 241.12 126.463 242.957C125.196 244.73 123.834 246.218 122.378 247.422C120.921 248.562 119.401 249.132 117.818 249.132C116.615 249.132 115.411 248.657 114.208 247.707C113.005 246.694 112.403 245.079 112.403 242.862C112.403 240.899 112.783 238.999 113.543 237.162C114.303 235.262 115.158 233.488 116.108 231.842C117.058 230.195 117.914 228.738 118.673 227.472C119.433 226.205 119.813 225.191 119.813 224.432C119.813 223.292 119.084 222.468 117.628 221.962C116.234 221.455 114.398 221.171 112.118 221.107C110.978 224.02 110.123 226.174 109.553 227.567C108.983 228.96 108.445 230.29 107.938 231.557C106.925 231.557 106.577 231.177 106.893 230.417C107.4 229.34 108.065 227.63 108.888 225.287C109.712 222.88 110.566 220.22 111.453 217.307C112.339 214.393 113.005 211.638 113.448 209.042C113.638 208.029 113.986 207.301 114.493 206.857C114.999 206.351 115.538 206.097 116.108 206.097ZM289.676 206.097C290.5 206.097 291.259 206.509 291.956 207.332C292.652 208.092 293.001 209.2 293.001 210.657C293.001 212.43 292.463 213.95 291.386 215.217C290.373 216.483 289.106 217.687 287.586 218.827C288.219 218.89 288.884 218.954 289.581 219.017H291.861C294.838 219.017 297.783 218.827 300.696 218.447C300.823 218.827 300.886 219.112 300.886 219.302C300.886 220.125 300.632 221.171 300.126 222.437C299.682 223.704 299.207 224.844 298.701 225.857C298.447 226.427 297.941 227.472 297.181 228.992C296.421 230.449 295.597 232.127 294.711 234.027C293.824 235.864 293.065 237.701 292.431 239.537C291.861 241.31 291.576 242.83 291.576 244.097C291.576 245.743 292.21 246.567 293.476 246.567C294.68 246.567 296.358 245.173 298.511 242.387C300.665 239.537 302.818 235.642 304.971 230.702C305.731 230.702 306.111 230.987 306.111 231.557C305.414 233.267 304.527 235.135 303.451 237.162C302.437 239.189 301.298 241.12 300.031 242.957C298.764 244.73 297.403 246.218 295.946 247.422C294.489 248.562 292.97 249.132 291.386 249.132C290.183 249.132 288.979 248.657 287.776 247.707C286.573 246.694 285.971 245.079 285.971 242.862C285.971 240.899 286.351 238.999 287.111 237.162C287.871 235.262 288.726 233.488 289.676 231.842C290.626 230.195 291.481 228.738 292.241 227.472C293.001 226.205 293.381 225.191 293.381 224.432C293.38 223.292 292.652 222.468 291.196 221.962C289.803 221.455 287.966 221.171 285.686 221.107C284.546 224.021 283.691 226.174 283.121 227.567C282.551 228.96 282.012 230.29 281.506 231.557C280.493 231.556 280.144 231.177 280.461 230.417C280.967 229.34 281.632 227.63 282.456 225.287C283.279 222.88 284.134 220.22 285.021 217.307C285.908 214.393 286.573 211.638 287.016 209.042C287.206 208.029 287.555 207.301 288.061 206.857C288.568 206.351 289.106 206.097 289.676 206.097ZM152.188 217.212C151.428 217.212 150.383 217.719 149.053 218.732C147.723 219.746 146.076 221.456 144.113 223.862C142.91 225.382 141.77 227.028 140.693 228.802C139.616 230.575 138.856 231.874 138.413 232.697C139.299 232.697 140.788 232.38 142.878 231.747C144.967 231.05 146.868 229.974 148.578 228.517C150.224 227.061 151.491 225.477 152.378 223.767C153.264 221.994 153.708 220.505 153.708 219.302C153.708 217.909 153.201 217.212 152.188 217.212ZM273.064 217.212C272.304 217.212 271.259 217.719 269.929 218.732C268.599 219.746 266.952 221.456 264.989 223.862C263.786 225.382 262.646 227.029 261.569 228.802C260.492 230.575 259.733 231.874 259.29 232.697C260.176 232.697 261.665 232.38 263.755 231.747C265.844 231.05 267.745 229.974 269.455 228.517C271.101 227.061 272.368 225.477 273.255 223.767C274.141 221.994 274.585 220.505 274.585 219.302C274.585 217.909 274.077 217.212 273.064 217.212ZM111.233 76.8925C114.02 76.8925 116.173 77.6842 117.693 79.2675C119.276 80.8508 120.068 83.0356 120.068 85.8222C120.068 88.5454 119.434 91.5534 118.168 94.8466C116.901 98.0765 115.128 101.307 112.848 104.537C110.568 107.767 107.876 110.776 104.773 113.562C101.67 116.349 98.2813 118.66 94.6081 120.497C90.9348 122.334 87.0715 123.474 83.0182 123.917C82.0682 125.944 80.8645 128.509 79.4079 131.612C77.9512 134.652 76.2099 137.788 74.1833 141.017C79.6931 142.284 84.8868 143.994 89.7633 146.147C94.7031 148.301 99.0414 150.739 102.778 153.462C106.578 156.248 109.554 159.194 111.708 162.297C113.861 165.463 114.938 168.599 114.938 171.702C114.938 174.489 114.242 176.832 112.848 178.732C111.455 180.632 109.871 181.582 108.098 181.582C107.465 181.582 107.053 181.455 106.863 181.202C106.673 181.012 106.578 180.79 106.578 180.537C107.718 180.347 108.826 179.492 109.903 177.972C110.98 176.515 111.518 174.805 111.518 172.842C111.518 169.739 110.505 166.73 108.478 163.817C106.452 160.967 103.602 158.338 99.9284 155.932C96.2551 153.525 91.9483 151.467 87.0084 149.757C82.1318 147.983 76.7794 146.686 70.9528 145.862C68.7996 148.902 66.3614 151.688 63.6383 154.222C60.9783 156.818 58.001 158.877 54.7077 160.397C51.4778 161.981 47.9626 162.772 44.1627 162.772C40.1729 162.772 37.1326 161.854 35.0426 160.017C32.9527 158.181 31.9079 156.059 31.9079 153.652C31.9079 151.436 32.7947 149.219 34.568 147.002C36.4046 144.722 39.1596 142.854 42.8327 141.397C46.5693 139.877 51.288 139.117 56.9879 139.117C61.3578 139.117 65.7912 139.497 70.2877 140.257C71.871 137.47 73.2965 134.684 74.5631 131.897C75.8298 129.111 76.9383 126.482 77.8883 124.012C71.6183 123.758 66.678 122.809 63.068 121.162C59.458 119.452 56.8927 117.33 55.3727 114.797C53.8528 112.264 53.0934 109.667 53.0934 107.007C53.0935 103.65 54.1068 100.483 56.1334 97.5067C58.1601 94.4669 60.9149 91.9965 64.3981 90.0966C67.8813 88.1967 71.7762 87.247 76.0827 87.247C76.5893 87.247 76.9062 87.4373 77.0329 87.8173C77.1595 88.1972 77.2233 88.5142 77.2233 88.7675C74.8167 88.7675 72.473 89.3051 70.193 90.3817C67.9763 91.4584 65.981 92.9152 64.2077 94.7519C62.4344 96.5252 61.0099 98.5206 59.9333 100.737C58.9199 102.954 58.4127 105.234 58.4127 107.577C58.4128 109.857 59.0151 112.106 60.2184 114.322C61.4218 116.475 63.48 118.281 66.3932 119.737C69.3065 121.194 73.3916 121.986 78.6481 122.112C79.2181 120.656 79.6929 119.325 80.0729 118.122C80.5161 116.856 80.8959 115.779 81.2125 114.892C82.7325 110.332 84.3483 105.803 86.0583 101.307C87.8315 96.8101 89.826 92.7249 92.0426 89.0517C94.3226 85.3784 97.0145 82.4334 100.118 80.2167C103.221 78 106.926 76.8925 111.233 76.8925ZM56.9879 144.912C51.7946 144.912 47.5194 145.451 44.1627 146.527C40.8063 147.541 38.3045 148.839 36.6579 150.422C35.0745 151.942 34.2829 153.462 34.2829 154.982C34.283 156.566 35.1384 157.927 36.8483 159.067C38.5582 160.27 40.9964 160.872 44.1627 160.872C48.8494 160.872 53.0932 159.352 56.8932 156.312C60.6932 153.336 64.0816 149.693 67.0583 145.387C63.7016 145.07 60.3446 144.912 56.9879 144.912ZM164.984 94.0868C165.554 94.0868 166.219 94.182 166.979 94.372C167.739 94.562 168.468 94.5934 169.165 94.4667C168.341 95.3533 167.201 96.9054 165.745 99.122C164.351 101.339 162.768 103.999 160.995 107.102C159.285 110.206 157.447 113.562 155.484 117.172C153.584 120.718 151.685 124.329 149.785 128.002C147.948 131.612 146.238 135 144.655 138.167C145.922 136.52 147.22 134.968 148.549 133.512C149.879 132.055 151.177 130.788 152.444 129.712C153.837 128.445 155.58 127.115 157.67 125.722C159.823 124.328 161.945 123.126 164.035 122.112C166.188 121.099 167.898 120.592 169.165 120.592C169.608 120.592 169.925 120.624 170.115 120.687C170.109 120.697 169.76 121.33 169.069 122.587C168.372 123.853 167.486 125.468 166.41 127.432C165.397 129.395 164.319 131.517 163.179 133.797C162.103 136.077 161.153 138.262 160.33 140.352C159.507 142.379 158.968 144.057 158.715 145.387C158.524 146.4 158.429 147.255 158.429 147.952C158.429 148.965 158.62 149.662 159 150.042C159.38 150.358 159.791 150.517 160.234 150.517C161.311 150.517 162.452 149.979 163.655 148.902C164.922 147.762 166.156 146.337 167.359 144.627C168.562 142.917 169.671 141.112 170.684 139.212C171.761 137.249 172.616 135.412 173.25 133.702C174.009 133.702 174.389 133.987 174.389 134.557C173.693 136.267 172.806 138.167 171.729 140.257C170.716 142.283 169.544 144.215 168.215 146.052C166.884 147.888 165.428 149.409 163.844 150.612C162.261 151.815 160.583 152.417 158.809 152.417C157.543 152.417 156.245 151.973 154.915 151.087C153.585 150.2 152.92 148.585 152.92 146.242C152.92 145.545 152.982 144.817 153.109 144.057C153.236 143.233 153.457 142.315 153.774 141.302C154.154 140.035 154.788 138.642 155.674 137.122C156.561 135.539 157.701 133.576 159.094 131.232C159.728 130.156 160.045 129.3 160.045 128.667C160.045 127.907 159.665 127.527 158.905 127.527C158.272 127.527 157.416 127.844 156.34 128.477C155.263 129.111 153.901 130.219 152.255 131.802C150.671 133.322 148.708 135.539 146.365 138.452C144.022 141.365 141.519 145.45 138.859 150.707C138.416 151.53 137.909 151.974 137.34 152.037C136.833 152.037 136.136 152.068 135.25 152.132C134.68 152.195 134.11 152.227 133.54 152.227C132.97 152.291 132.495 152.48 132.115 152.797C134.775 147.35 137.53 141.65 140.38 135.697C143.293 129.681 146.269 123.632 149.309 117.552C152.349 111.472 155.358 105.677 158.335 100.167C159.411 98.267 160.393 96.7787 161.28 95.7021C162.23 94.6256 163.464 94.0869 164.984 94.0868ZM185.784 119.927C186.29 119.927 186.828 120.022 187.398 120.212C187.968 120.338 188.538 120.402 189.108 120.402C189.488 120.402 189.774 120.37 189.964 120.307C189.077 120.813 187.906 122.081 186.449 124.107C185.056 126.071 183.63 128.351 182.173 130.947C180.717 133.544 179.419 135.982 178.279 138.262C179.482 136.805 180.749 135.349 182.079 133.892C183.409 132.436 184.866 131.042 186.449 129.712C187.969 128.382 189.774 127.02 191.864 125.627C194.017 124.17 196.107 122.967 198.133 122.017C200.16 121.068 201.775 120.592 202.978 120.592C203.421 120.592 203.738 120.624 203.928 120.687C203.919 120.705 203.57 121.338 202.883 122.587C202.187 123.79 201.3 125.405 200.223 127.432C199.21 129.395 198.165 131.517 197.089 133.797C196.012 136.013 195.03 138.167 194.143 140.257C193.32 142.283 192.782 143.993 192.529 145.387C192.339 146.21 192.244 146.97 192.244 147.667C192.244 148.68 192.433 149.345 192.813 149.662C193.193 149.979 193.605 150.137 194.048 150.137C195.252 150.137 196.487 149.599 197.754 148.522C199.02 147.446 200.224 146.084 201.364 144.437C202.567 142.728 203.675 140.922 204.688 139.022C205.701 137.122 206.557 135.349 207.254 133.702C208.013 133.702 208.393 133.987 208.393 134.557C207.697 136.267 206.81 138.167 205.733 140.257C204.72 142.283 203.548 144.215 202.218 146.052C200.952 147.888 199.527 149.409 197.944 150.612C196.361 151.816 194.65 152.417 192.813 152.417C191.547 152.417 190.217 151.973 188.824 151.087C187.494 150.2 186.829 148.554 186.829 146.147C186.829 145.451 186.892 144.722 187.018 143.962C187.145 143.139 187.367 142.252 187.683 141.302C188.19 140.035 188.792 138.673 189.489 137.217C190.186 135.76 191.326 133.765 192.909 131.232C193.352 130.536 193.605 129.997 193.669 129.617C193.795 129.237 193.858 128.92 193.858 128.667C193.858 127.907 193.51 127.527 192.813 127.527C192.243 127.527 191.388 127.844 190.249 128.477C189.172 129.111 187.81 130.219 186.164 131.802C184.58 133.322 182.68 135.475 180.464 138.262C178.31 141.048 175.809 145.166 172.959 150.612C172.515 151.435 172.008 151.879 171.438 151.942C170.931 152.006 170.203 152.068 169.254 152.132C168.62 152.195 168.019 152.227 167.449 152.227C166.879 152.291 166.403 152.48 166.023 152.797C168.303 148.173 170.489 143.614 172.579 139.117C174.669 134.557 176.822 130.219 179.039 126.102C180.305 123.823 181.382 122.239 182.268 121.352C183.155 120.402 184.327 119.927 185.784 119.927ZM123.575 118.692C126.172 118.692 128.072 119.579 129.275 121.352C130.541 123.126 131.174 125.374 131.174 128.097C131.174 129.997 130.859 131.992 130.225 134.082C129.592 136.172 128.736 138.23 127.66 140.257C128.483 141.08 129.655 141.492 131.174 141.492C132.948 141.492 134.468 140.922 135.735 139.782C137.002 138.642 138.237 136.615 139.44 133.702C140.2 133.702 140.58 133.987 140.58 134.557C139.376 137.47 137.983 139.624 136.4 141.017C134.88 142.347 132.916 142.98 130.509 142.917C129.053 142.917 127.85 142.505 126.9 141.682C125.127 144.595 123.005 147.065 120.535 149.092C118.128 151.055 115.627 152.037 113.03 152.037C110.433 152.037 108.502 151.119 107.235 149.282C106.032 147.382 105.43 145.102 105.43 142.442C105.43 139.972 105.905 137.407 106.855 134.747C107.868 131.834 109.262 129.174 111.035 126.767C112.871 124.361 114.867 122.428 117.02 120.972C119.237 119.452 121.422 118.692 123.575 118.692ZM125.094 121.732C123.765 121.732 122.371 122.302 120.915 123.442C119.458 124.582 118.065 126.102 116.735 128.002C115.468 129.902 114.36 132.024 113.41 134.367C112.587 136.33 111.953 138.198 111.509 139.972C111.066 141.681 110.844 143.265 110.844 144.722C110.844 146.305 111.13 147.572 111.7 148.522C112.27 149.472 113.157 149.947 114.36 149.947C115.817 149.947 117.274 149.346 118.73 148.142C120.187 146.876 121.516 145.45 122.719 143.867C123.923 142.284 124.778 140.922 125.285 139.782C124.272 137.946 123.67 136.584 123.48 135.697C123.353 134.747 123.29 134.051 123.29 133.607C123.29 132.404 123.607 131.486 124.24 130.852C124.873 130.219 125.507 129.902 126.14 129.902C127.027 129.902 127.786 130.282 128.42 131.042C128.546 130.345 128.641 129.712 128.705 129.142C128.768 128.509 128.799 127.907 128.799 127.337C128.799 125.69 128.484 124.36 127.85 123.347C127.28 122.27 126.361 121.732 125.094 121.732ZM240.303 129.237C240.62 129.237 240.778 129.364 240.778 129.617C240.778 130.314 240.588 130.915 240.208 131.422C239.828 131.865 239.1 132.087 238.023 132.087H215.698C215.381 132.087 215.223 131.96 215.223 131.707C215.223 131.264 215.381 130.757 215.698 130.187C216.078 129.554 216.775 129.237 217.788 129.237H240.303ZM111.233 81.7372C108.51 81.7372 105.944 82.94 103.538 85.3466C101.131 87.6899 98.8198 90.8253 96.6032 94.7519C94.4499 98.6151 92.3279 102.922 90.2379 107.672C88.148 112.422 86.0584 117.14 83.9684 121.827C87.7048 121.32 91.1878 120.18 94.4176 118.407C97.6475 116.634 100.593 114.48 103.253 111.947C105.913 109.351 108.193 106.595 110.093 103.682C111.993 100.768 113.449 97.9183 114.463 95.1317C115.476 92.2818 115.983 89.7487 115.983 87.5321C115.983 85.7591 115.603 84.3657 114.843 83.3524C114.083 82.2758 112.88 81.7372 111.233 81.7372Z" fill="#0B3309"/>
</g>
<defs>
<filter id="filter0_ddi_4_109" x="-0.0921402" y="-0.107513" width="330.378" height="330.378" filterUnits="userSpaceOnUse" color-interpolation-filters="sRGB">
<feFlood flood-opacity="0" result="BackgroundImageFix"/>
<feColorMatrix in="SourceAlpha" type="matrix" values="0 0 0 0 0 0 0 0 0 0 0 0 0 0 0 0 0 0 127 0" result="hardAlpha"/>
<feOffset dy="4"/>
<feGaussianBlur stdDeviation="2"/>
<feComposite in2="hardAlpha" operator="out"/>
<feColorMatrix type="matrix" values="0 0 0 0 0 0 0 0 0 0 0 0 0 0 0 0 0 0 0.25 0"/>
<feBlend mode="normal" in2="BackgroundImageFix" result="effect1_dropShadow_4_109"/>
<feColorMatrix in="SourceAlpha" type="matrix" values="0 0 0 0 0 0 0 0 0 0 0 0 0 0 0 0 0 0 127 0" result="hardAlpha"/>
<feOffset dx="2" dy="2"/>
<feGaussianBlur stdDeviation="7.5"/>
<feComposite in2="hardAlpha" operator="out"/>
<feColorMatrix type="matrix" values="0 0 0 0 0.24963 0 0 0 0 0.865385 0 0 0 0 0.270155 0 0 0 1 0"/>
<feBlend mode="normal" in2="effect1_dropShadow_4_109" result="effect2_dropShadow_4_109"/>
<feBlend mode="normal" in="SourceGraphic" in2="effect2_dropShadow_4_109" result="shape"/>
<feColorMatrix in="SourceAlpha" type="matrix" values="0 0 0 0 0 0 0 0 0 0 0 0 0 0 0 0 0 0 127 0" result="hardAlpha"/>
<feOffset dx="10" dy="10"/>
<feGaussianBlur stdDeviation="40"/>
<feComposite in2="hardAlpha" operator="arithmetic" k2="-1" k3="1"/>
<feColorMatrix type="matrix" values="0 0 0 0 0.211765 0 0 0 0 0.4 0 0 0 0 0.2 0 0 0 1 0"/>
<feBlend mode="normal" in2="shape" result="effect3_innerShadow_4_109"/>
</filter>
<filter id="filter1_d_4_109" x="8" y="13" width="320.193" height="320.178" filterUnits="userSpaceOnUse" color-interpolation-filters="sRGB">
<feFlood flood-opacity="0" result="BackgroundImageFix"/>
<feColorMatrix in="SourceAlpha" type="matrix" values="0 0 0 0 0 0 0 0 0 0 0 0 0 0 0 0 0 0 127 0" result="hardAlpha"/>
<feMorphology radius="5" operator="dilate" in="SourceAlpha" result="effect1_dropShadow_4_109"/>
<feOffset dx="5" dy="10"/>
<feGaussianBlur stdDeviation="2.5"/>
<feComposite in2="hardAlpha" operator="out"/>
<feColorMatrix type="matrix" values="0 0 0 0 0 0 0 0 0 0 0 0 0 0 0 0 0 0 0.2 0"/>
<feBlend mode="normal" in2="BackgroundImageFix" result="effect1_dropShadow_4_109"/>
<feBlend mode="normal" in="SourceGraphic" in2="effect1_dropShadow_4_109" result="shape"/>
</filter>
</defs>
</svg>